<svg width="995" height="145" viewBox="0 0 995 145" fill="none" xmlns="http://www.w3.org/2000/svg">
<path d="M29.9922 92.9023V143H0.695312V0.8125H56.1641C66.8411 0.8125 76.2161 2.76562 84.2891 6.67188C92.4271 10.5781 98.6771 16.1445 103.039 23.3711C107.401 30.5326 109.582 38.7031 109.582 47.8828C109.582 61.8151 104.797 72.8177 95.2266 80.8906C85.7214 88.8984 72.5378 92.9023 55.6758 92.9023H29.9922ZM29.9922 69.1719H56.1641C63.9115 69.1719 69.8034 67.349 73.8398 63.7031C77.9414 60.0573 79.9922 54.849 79.9922 48.0781C79.9922 41.112 77.9414 35.4805 73.8398 31.1836C69.7383 26.8867 64.0742 24.6732 56.8477 24.543H29.9922V69.1719ZM122.18 89.1914C122.18 78.7096 124.198 69.3672 128.234 61.1641C132.271 52.9609 138.065 46.6133 145.617 42.1211C153.234 37.6289 162.056 35.3828 172.082 35.3828C186.34 35.3828 197.961 39.7448 206.945 48.4688C215.995 57.1927 221.04 69.0417 222.082 84.0156L222.277 91.2422C222.277 107.453 217.753 120.474 208.703 130.305C199.654 140.07 187.512 144.953 172.277 144.953C157.043 144.953 144.868 140.07 135.754 130.305C126.704 120.539 122.18 107.258 122.18 90.4609V89.1914ZM150.402 91.2422C150.402 101.268 152.29 108.951 156.066 114.289C159.842 119.562 165.246 122.199 172.277 122.199C179.113 122.199 184.452 119.595 188.293 114.387C192.134 109.113 194.055 100.715 194.055 89.1914C194.055 79.3607 192.134 71.7435 188.293 66.3398C184.452 60.9362 179.048 58.2344 172.082 58.2344C165.181 58.2344 159.842 60.9362 156.066 66.3398C152.29 71.6784 150.402 79.9792 150.402 91.2422ZM266.125 37.3359L267.004 49.1523C274.491 39.9727 284.615 35.3828 297.375 35.3828C310.982 35.3828 320.324 40.7539 325.402 51.4961C332.824 40.7539 343.404 35.3828 357.141 35.3828C368.599 35.3828 377.128 38.7357 382.727 45.4414C388.326 52.082 391.125 62.1081 391.125 75.5195V143H362.805V75.6172C362.805 69.6276 361.633 65.2656 359.289 62.5312C356.945 59.7318 352.811 58.332 346.887 58.332C338.423 58.332 332.564 62.3685 329.309 70.4414L329.406 143H301.184V75.7148C301.184 69.5951 299.979 65.168 297.57 62.4336C295.161 59.6992 291.06 58.332 285.266 58.332C277.258 58.332 271.464 61.6523 267.883 68.293V143H239.66V37.3359H266.125ZM408.508 89.1914C408.508 78.7096 410.526 69.3672 414.562 61.1641C418.599 52.9609 424.393 46.6133 431.945 42.1211C439.562 37.6289 448.384 35.3828 458.41 35.3828C472.668 35.3828 484.289 39.7448 493.273 48.4688C502.323 57.1927 507.368 69.0417 508.41 84.0156L508.605 91.2422C508.605 107.453 504.081 120.474 495.031 130.305C485.982 140.07 473.84 144.953 458.605 144.953C443.371 144.953 431.197 140.07 422.082 130.305C413.033 120.539 408.508 107.258 408.508 90.4609V89.1914ZM436.73 91.2422C436.73 101.268 438.618 108.951 442.395 114.289C446.171 119.562 451.574 122.199 458.605 122.199C465.441 122.199 470.78 119.595 474.621 114.387C478.462 109.113 480.383 100.715 480.383 89.1914C480.383 79.3607 478.462 71.7435 474.621 66.3398C470.78 60.9362 465.376 58.2344 458.41 58.2344C451.509 58.2344 446.171 60.9362 442.395 66.3398C438.618 71.6784 436.73 79.9792 436.73 91.2422Z" fill="black"/>
<path d="M527.844 143V0.8125H571.594C584.094 0.8125 595.259 3.64453 605.09 9.30859C614.986 14.9076 622.701 22.9154 628.234 33.332C633.768 43.6836 636.535 55.4674 636.535 68.6836V75.2266C636.535 88.4427 633.801 100.194 628.332 110.48C622.928 120.767 615.279 128.742 605.383 134.406C595.487 140.07 584.322 142.935 571.887 143H527.844ZM557.141 24.543V119.465H571.301C582.759 119.465 591.516 115.721 597.57 108.234C603.625 100.747 606.717 90.0378 606.848 76.1055V68.5859C606.848 54.1328 603.853 43.1953 597.863 35.7734C591.874 28.2865 583.117 24.543 571.594 24.543H557.141ZM651.672 89.1914C651.672 78.7096 653.69 69.3672 657.727 61.1641C661.763 52.9609 667.557 46.6133 675.109 42.1211C682.727 37.6289 691.548 35.3828 701.574 35.3828C715.832 35.3828 727.453 39.7448 736.438 48.4688C745.487 57.1927 750.533 69.0417 751.574 84.0156L751.77 91.2422C751.77 107.453 747.245 120.474 738.195 130.305C729.146 140.07 717.004 144.953 701.77 144.953C686.535 144.953 674.361 140.07 665.246 130.305C656.197 120.539 651.672 107.258 651.672 90.4609V89.1914ZM679.895 91.2422C679.895 101.268 681.783 108.951 685.559 114.289C689.335 119.562 694.738 122.199 701.77 122.199C708.605 122.199 713.944 119.595 717.785 114.387C721.626 109.113 723.547 100.715 723.547 89.1914C723.547 79.3607 721.626 71.7435 717.785 66.3398C713.944 60.9362 708.54 58.2344 701.574 58.2344C694.673 58.2344 689.335 60.9362 685.559 66.3398C681.783 71.6784 679.895 79.9792 679.895 91.2422Z" fill="#64A6FF"/>
<path d="M771.008 143V0.8125H814.758C827.258 0.8125 838.423 3.64453 848.254 9.30859C858.15 14.9076 865.865 22.9154 871.398 33.332C876.932 43.6836 879.699 55.4674 879.699 68.6836V75.2266C879.699 88.4427 876.965 100.194 871.496 110.48C866.092 120.767 858.443 128.742 848.547 134.406C838.651 140.07 827.486 142.935 815.051 143H771.008ZM800.305 24.543V119.465H814.465C825.923 119.465 834.68 115.721 840.734 108.234C846.789 100.747 849.882 90.0378 850.012 76.1055V68.5859C850.012 54.1328 847.017 43.1953 841.027 35.7734C835.038 28.2865 826.281 24.543 814.758 24.543H800.305ZM894.836 89.1914C894.836 78.7096 896.854 69.3672 900.891 61.1641C904.927 52.9609 910.721 46.6133 918.273 42.1211C925.891 37.6289 934.712 35.3828 944.738 35.3828C958.996 35.3828 970.617 39.7448 979.602 48.4688C988.651 57.1927 993.697 69.0417 994.738 84.0156L994.934 91.2422C994.934 107.453 990.409 120.474 981.359 130.305C972.31 140.07 960.168 144.953 944.934 144.953C929.699 144.953 917.525 140.07 908.41 130.305C899.361 120.539 894.836 107.258 894.836 90.4609V89.1914ZM923.059 91.2422C923.059 101.268 924.947 108.951 928.723 114.289C932.499 119.562 937.902 122.199 944.934 122.199C951.77 122.199 957.108 119.595 960.949 114.387C964.79 109.113 966.711 100.715 966.711 89.1914C966.711 79.3607 964.79 71.7435 960.949 66.3398C957.108 60.9362 951.704 58.2344 944.738 58.2344C937.837 58.2344 932.499 60.9362 928.723 66.3398C924.947 71.6784 923.059 79.9792 923.059 91.2422Z" fill="#2F87FF"/>
</svg>
