<svg width="48" height="48" viewBox="0 0 48 48" fill="none" xmlns="http://www.w3.org/2000/svg">
<path d="M38.86 25.95C38.94 25.31 39 24.66 39 24C39 23.34 38.94 22.69 38.86 22.05L43.09 18.74C43.47 18.44 43.58 17.9 43.33 17.46L39.33 10.53C39.08 10.1 38.56 9.92 38.11 10.1L33.13 12.11C32.1 11.32 30.97 10.65 29.75 10.14L29 4.84C28.91 4.37 28.5 4 28 4H20C19.5 4 19.09 4.37 19.01 4.84L18.26 10.14C17.04 10.65 15.91 11.31 14.88 12.11L9.89999 10.1C9.44999 9.93 8.92999 10.1 8.67999 10.53L4.67999 17.46C4.42999 17.89 4.53999 18.43 4.91999 18.74L9.13999 22.05C9.05999 22.69 8.99999 23.34 8.99999 24C8.99999 24.66 9.05999 25.31 9.13999 25.95L4.91999 29.26C4.53999 29.56 4.42999 30.1 4.67999 30.54L8.67999 37.47C8.92999 37.9 9.44999 38.08 9.89999 37.9L14.88 35.89C15.91 36.68 17.04 37.35 18.26 37.86L19.01 43.16C19.09 43.63 19.5 44 20 44H28C28.5 44 28.91 43.63 28.99 43.16L29.74 37.86C30.96 37.35 32.09 36.69 33.12 35.89L38.1 37.9C38.55 38.07 39.07 37.9 39.32 37.47L43.32 30.54C43.57 30.11 43.46 29.57 43.08 29.26L38.86 25.95ZM24 31C20.13 31 17 27.87 17 24C17 20.13 20.13 17 24 17C27.87 17 31 20.13 31 24C31 27.87 27.87 31 24 31Z" fill="#2F87FF"/>
</svg>
