<svg width="256" height="256" viewBox="0 0 256 256" fill="none" xmlns="http://www.w3.org/2000/svg">
<rect width="256" height="256" fill="white"/>
<path d="M22.769 209.189C24.647 210.477 31.8906 214.072 38.0074 206.346L79.4301 145.821L123.267 188.102C125.575 190.302 128.74 191.483 131.96 191.107C135.125 190.785 138.023 189.122 139.901 186.493L212.605 82.2384L215.234 117.115C215.878 125.968 224.195 127.417 226.985 127.202C232.995 126.72 237.555 121.515 237.072 115.452L232.458 54.1225C232.029 48.113 226.77 43.5522 220.707 44.0351L159.378 48.6495C153.369 49.0788 148.808 54.3371 149.291 60.4003C149.72 66.4098 154.925 70.9169 161.041 70.4877L195.918 67.8585L129.277 163.367L85.3323 120.978C83.0251 118.725 79.8057 117.598 76.64 117.974C73.4206 118.295 70.5232 120.012 68.6989 122.695L19.9253 193.951C16.4912 198.941 17.779 205.755 22.769 209.189V209.189Z" fill="#2F87FF"/>
</svg>
